<mxfile host="app.diagrams.net" modified="2022-05-02T14:23:56.200Z" agent="5.0 (Windows NT 10.0; Win64; x64) AppleWebKit/537.36 (KHTML, like Gecko) Chrome/101.0.4951.41 Safari/537.36 Edg/101.0.1210.32" etag="LL5aQVHSjcOpBaJOMVFb" version="17.5.0" type="github">
  <diagram id="1RKU9HNqCACdmGvZMmP5" name="Page-1">
    <mxGraphModel dx="1038" dy="1679" grid="1" gridSize="10" guides="1" tooltips="1" connect="1" arrows="1" fold="1" page="1" pageScale="1" pageWidth="850" pageHeight="1100" math="0" shadow="0">
      <root>
        <mxCell id="0" />
        <mxCell id="1" parent="0" />
        <mxCell id="Ez-ZwfZhHMJORxGf13h--3" value="" style="edgeStyle=orthogonalEdgeStyle;rounded=0;orthogonalLoop=1;jettySize=auto;html=1;" edge="1" parent="1" source="Ez-ZwfZhHMJORxGf13h--1" target="Ez-ZwfZhHMJORxGf13h--2">
          <mxGeometry relative="1" as="geometry" />
        </mxCell>
        <mxCell id="Ez-ZwfZhHMJORxGf13h--1" value="start" style="rounded=1;whiteSpace=wrap;html=1;" vertex="1" parent="1">
          <mxGeometry x="80" y="30" width="90" height="20" as="geometry" />
        </mxCell>
        <mxCell id="Ez-ZwfZhHMJORxGf13h--5" value="" style="edgeStyle=orthogonalEdgeStyle;rounded=0;orthogonalLoop=1;jettySize=auto;html=1;" edge="1" parent="1" source="Ez-ZwfZhHMJORxGf13h--2" target="Ez-ZwfZhHMJORxGf13h--4">
          <mxGeometry relative="1" as="geometry" />
        </mxCell>
        <mxCell id="Ez-ZwfZhHMJORxGf13h--2" value="IF card has sight and attack rng&amp;nbsp;" style="rhombus;whiteSpace=wrap;html=1;" vertex="1" parent="1">
          <mxGeometry x="85" y="100" width="80" height="80" as="geometry" />
        </mxCell>
        <mxCell id="Ez-ZwfZhHMJORxGf13h--7" style="edgeStyle=orthogonalEdgeStyle;rounded=0;orthogonalLoop=1;jettySize=auto;html=1;entryX=0.5;entryY=0;entryDx=0;entryDy=0;" edge="1" parent="1" source="Ez-ZwfZhHMJORxGf13h--4" target="Ez-ZwfZhHMJORxGf13h--6">
          <mxGeometry relative="1" as="geometry" />
        </mxCell>
        <mxCell id="Ez-ZwfZhHMJORxGf13h--151" value="" style="edgeStyle=orthogonalEdgeStyle;rounded=0;orthogonalLoop=1;jettySize=auto;html=1;fontSize=8;" edge="1" parent="1" source="Ez-ZwfZhHMJORxGf13h--4" target="Ez-ZwfZhHMJORxGf13h--150">
          <mxGeometry relative="1" as="geometry" />
        </mxCell>
        <mxCell id="Ez-ZwfZhHMJORxGf13h--4" value="IF card doesn&#39;t lock any target&lt;span style=&quot;color: rgba(0 , 0 , 0 , 0) ; font-family: monospace ; font-size: 0px&quot;&gt;%3CmxGraphModel%3E%3Croot%3E%3CmxCell%20id%3D%220%22%2F%3E%3CmxCell%20id%3D%221%22%20parent%3D%220%22%2F%3E%3CmxCell%20id%3D%222%22%20value%3D%22call%26amp%3Bnbsp%3BsearchTarget%22%20style%3D%22rounded%3D1%3BwhiteSpace%3Dwrap%3Bhtml%3D1%3BfillColor%3D%23f8cecc%3BgradientColor%3D%23ea6b66%3BstrokeColor%3D%23b85450%3B%22%20vertex%3D%221%22%20parent%3D%221%22%3E%3CmxGeometry%20x%3D%2265%22%20y%3D%22290%22%20width%3D%22120%22%20height%3D%2260%22%20as%3D%22geometry%22%2F%3E%3C%2FmxCell%3E%3C%2Froot%3E%3C%2FmxGraphModel%3E&lt;/span&gt;" style="rhombus;whiteSpace=wrap;html=1;" vertex="1" parent="1">
          <mxGeometry x="85" y="240" width="80" height="80" as="geometry" />
        </mxCell>
        <mxCell id="Ez-ZwfZhHMJORxGf13h--9" value="" style="edgeStyle=orthogonalEdgeStyle;rounded=0;orthogonalLoop=1;jettySize=auto;html=1;" edge="1" parent="1" source="Ez-ZwfZhHMJORxGf13h--6" target="Ez-ZwfZhHMJORxGf13h--8">
          <mxGeometry relative="1" as="geometry" />
        </mxCell>
        <mxCell id="Ez-ZwfZhHMJORxGf13h--6" value="call&amp;nbsp;searchTarget" style="rounded=1;whiteSpace=wrap;html=1;fillColor=#f8cecc;gradientColor=#ea6b66;strokeColor=#b85450;" vertex="1" parent="1">
          <mxGeometry x="230" y="30" width="120" height="60" as="geometry" />
        </mxCell>
        <mxCell id="Ez-ZwfZhHMJORxGf13h--11" value="" style="edgeStyle=orthogonalEdgeStyle;rounded=0;orthogonalLoop=1;jettySize=auto;html=1;" edge="1" parent="1" source="Ez-ZwfZhHMJORxGf13h--8" target="Ez-ZwfZhHMJORxGf13h--10">
          <mxGeometry relative="1" as="geometry" />
        </mxCell>
        <mxCell id="Ez-ZwfZhHMJORxGf13h--8" value="IF nearest sight rng is not empty" style="rhombus;whiteSpace=wrap;html=1;" vertex="1" parent="1">
          <mxGeometry x="250" y="130" width="80" height="80" as="geometry" />
        </mxCell>
        <mxCell id="Ez-ZwfZhHMJORxGf13h--13" value="" style="edgeStyle=orthogonalEdgeStyle;rounded=0;orthogonalLoop=1;jettySize=auto;html=1;" edge="1" parent="1" source="Ez-ZwfZhHMJORxGf13h--10" target="Ez-ZwfZhHMJORxGf13h--12">
          <mxGeometry relative="1" as="geometry" />
        </mxCell>
        <mxCell id="Ez-ZwfZhHMJORxGf13h--10" value="construct the identify target object" style="whiteSpace=wrap;html=1;" vertex="1" parent="1">
          <mxGeometry x="230" y="240" width="120" height="60" as="geometry" />
        </mxCell>
        <mxCell id="Ez-ZwfZhHMJORxGf13h--15" value="" style="edgeStyle=orthogonalEdgeStyle;rounded=0;orthogonalLoop=1;jettySize=auto;html=1;" edge="1" parent="1" source="Ez-ZwfZhHMJORxGf13h--12" target="Ez-ZwfZhHMJORxGf13h--14">
          <mxGeometry relative="1" as="geometry" />
        </mxCell>
        <mxCell id="Ez-ZwfZhHMJORxGf13h--12" value="call&amp;nbsp;identifyTarget" style="rounded=1;whiteSpace=wrap;html=1;fillColor=#f8cecc;gradientColor=#ea6b66;strokeColor=#b85450;" vertex="1" parent="1">
          <mxGeometry x="230" y="340" width="120" height="60" as="geometry" />
        </mxCell>
        <mxCell id="Ez-ZwfZhHMJORxGf13h--17" value="" style="edgeStyle=orthogonalEdgeStyle;rounded=0;orthogonalLoop=1;jettySize=auto;html=1;entryX=0.5;entryY=0;entryDx=0;entryDy=0;" edge="1" parent="1" source="Ez-ZwfZhHMJORxGf13h--14" target="Ez-ZwfZhHMJORxGf13h--16">
          <mxGeometry relative="1" as="geometry" />
        </mxCell>
        <mxCell id="Ez-ZwfZhHMJORxGf13h--14" value="IF nearest target not empty" style="rhombus;whiteSpace=wrap;html=1;" vertex="1" parent="1">
          <mxGeometry x="250" y="450" width="80" height="80" as="geometry" />
        </mxCell>
        <mxCell id="Ez-ZwfZhHMJORxGf13h--19" value="yes" style="edgeStyle=orthogonalEdgeStyle;rounded=0;orthogonalLoop=1;jettySize=auto;html=1;" edge="1" parent="1" source="Ez-ZwfZhHMJORxGf13h--16" target="Ez-ZwfZhHMJORxGf13h--18">
          <mxGeometry relative="1" as="geometry" />
        </mxCell>
        <mxCell id="Ez-ZwfZhHMJORxGf13h--37" value="" style="edgeStyle=orthogonalEdgeStyle;rounded=0;orthogonalLoop=1;jettySize=auto;html=1;" edge="1" parent="1" source="Ez-ZwfZhHMJORxGf13h--16" target="Ez-ZwfZhHMJORxGf13h--36">
          <mxGeometry relative="1" as="geometry" />
        </mxCell>
        <mxCell id="Ez-ZwfZhHMJORxGf13h--38" value="NO" style="edgeLabel;html=1;align=center;verticalAlign=middle;resizable=0;points=[];" vertex="1" connectable="0" parent="Ez-ZwfZhHMJORxGf13h--37">
          <mxGeometry x="0.2457" y="4" relative="1" as="geometry">
            <mxPoint as="offset" />
          </mxGeometry>
        </mxCell>
        <mxCell id="Ez-ZwfZhHMJORxGf13h--16" value="IF target in attack range" style="rhombus;whiteSpace=wrap;html=1;" vertex="1" parent="1">
          <mxGeometry x="410" y="20" width="80" height="80" as="geometry" />
        </mxCell>
        <mxCell id="Ez-ZwfZhHMJORxGf13h--21" value="" style="edgeStyle=orthogonalEdgeStyle;rounded=0;orthogonalLoop=1;jettySize=auto;html=1;" edge="1" parent="1" source="Ez-ZwfZhHMJORxGf13h--18" target="Ez-ZwfZhHMJORxGf13h--20">
          <mxGeometry relative="1" as="geometry" />
        </mxCell>
        <mxCell id="Ez-ZwfZhHMJORxGf13h--18" value="IF card doesn&#39;t lock any target" style="rhombus;whiteSpace=wrap;html=1;" vertex="1" parent="1">
          <mxGeometry x="425" y="160" width="80" height="80" as="geometry" />
        </mxCell>
        <mxCell id="Ez-ZwfZhHMJORxGf13h--23" value="yes" style="edgeStyle=orthogonalEdgeStyle;rounded=0;orthogonalLoop=1;jettySize=auto;html=1;" edge="1" parent="1" source="Ez-ZwfZhHMJORxGf13h--20" target="Ez-ZwfZhHMJORxGf13h--22">
          <mxGeometry relative="1" as="geometry" />
        </mxCell>
        <mxCell id="Ez-ZwfZhHMJORxGf13h--27" value="no" style="edgeStyle=orthogonalEdgeStyle;rounded=0;orthogonalLoop=1;jettySize=auto;html=1;" edge="1" parent="1" source="Ez-ZwfZhHMJORxGf13h--20" target="Ez-ZwfZhHMJORxGf13h--26">
          <mxGeometry relative="1" as="geometry" />
        </mxCell>
        <mxCell id="Ez-ZwfZhHMJORxGf13h--20" value="IF target in attack rng is pop" style="rhombus;whiteSpace=wrap;html=1;" vertex="1" parent="1">
          <mxGeometry x="425" y="280" width="80" height="80" as="geometry" />
        </mxCell>
        <mxCell id="Ez-ZwfZhHMJORxGf13h--22" value="set target is pop grp" style="whiteSpace=wrap;html=1;" vertex="1" parent="1">
          <mxGeometry x="560" y="290" width="120" height="60" as="geometry" />
        </mxCell>
        <mxCell id="Ez-ZwfZhHMJORxGf13h--29" value="" style="edgeStyle=orthogonalEdgeStyle;rounded=0;orthogonalLoop=1;jettySize=auto;html=1;" edge="1" parent="1" source="Ez-ZwfZhHMJORxGf13h--26" target="Ez-ZwfZhHMJORxGf13h--28">
          <mxGeometry relative="1" as="geometry" />
        </mxCell>
        <mxCell id="Ez-ZwfZhHMJORxGf13h--35" value="" style="edgeStyle=orthogonalEdgeStyle;rounded=0;orthogonalLoop=1;jettySize=auto;html=1;" edge="1" parent="1" source="Ez-ZwfZhHMJORxGf13h--26" target="Ez-ZwfZhHMJORxGf13h--34">
          <mxGeometry relative="1" as="geometry" />
        </mxCell>
        <mxCell id="Ez-ZwfZhHMJORxGf13h--26" value="ELSE" style="rhombus;whiteSpace=wrap;html=1;" vertex="1" parent="1">
          <mxGeometry x="425" y="410" width="80" height="80" as="geometry" />
        </mxCell>
        <mxCell id="Ez-ZwfZhHMJORxGf13h--28" value="Set the target" style="whiteSpace=wrap;html=1;" vertex="1" parent="1">
          <mxGeometry x="565" y="420" width="120" height="60" as="geometry" />
        </mxCell>
        <mxCell id="Ez-ZwfZhHMJORxGf13h--34" value="call triggerAttack" style="rounded=1;whiteSpace=wrap;html=1;fillColor=#f8cecc;gradientColor=#ea6b66;strokeColor=#b85450;" vertex="1" parent="1">
          <mxGeometry x="405" y="520" width="120" height="60" as="geometry" />
        </mxCell>
        <mxCell id="Ez-ZwfZhHMJORxGf13h--45" value="" style="edgeStyle=orthogonalEdgeStyle;rounded=0;orthogonalLoop=1;jettySize=auto;html=1;" edge="1" parent="1" source="Ez-ZwfZhHMJORxGf13h--36" target="Ez-ZwfZhHMJORxGf13h--41">
          <mxGeometry relative="1" as="geometry" />
        </mxCell>
        <mxCell id="Ez-ZwfZhHMJORxGf13h--36" value="ELSE IF target in sight range" style="rhombus;whiteSpace=wrap;html=1;" vertex="1" parent="1">
          <mxGeometry x="700" y="20" width="80" height="80" as="geometry" />
        </mxCell>
        <mxCell id="Ez-ZwfZhHMJORxGf13h--39" value="yes" style="edgeStyle=orthogonalEdgeStyle;rounded=0;orthogonalLoop=1;jettySize=auto;html=1;" edge="1" parent="1" source="Ez-ZwfZhHMJORxGf13h--41" target="Ez-ZwfZhHMJORxGf13h--42">
          <mxGeometry relative="1" as="geometry" />
        </mxCell>
        <mxCell id="Ez-ZwfZhHMJORxGf13h--40" value="no" style="edgeStyle=orthogonalEdgeStyle;rounded=0;orthogonalLoop=1;jettySize=auto;html=1;" edge="1" parent="1" source="Ez-ZwfZhHMJORxGf13h--41" target="Ez-ZwfZhHMJORxGf13h--43">
          <mxGeometry relative="1" as="geometry" />
        </mxCell>
        <mxCell id="Ez-ZwfZhHMJORxGf13h--41" value="IF target in attack rng is pop" style="rhombus;whiteSpace=wrap;html=1;" vertex="1" parent="1">
          <mxGeometry x="700" y="130" width="80" height="80" as="geometry" />
        </mxCell>
        <mxCell id="Ez-ZwfZhHMJORxGf13h--42" value="set target is pop grp" style="whiteSpace=wrap;html=1;" vertex="1" parent="1">
          <mxGeometry x="810" y="140" width="120" height="60" as="geometry" />
        </mxCell>
        <mxCell id="Ez-ZwfZhHMJORxGf13h--46" value="" style="edgeStyle=orthogonalEdgeStyle;rounded=0;orthogonalLoop=1;jettySize=auto;html=1;" edge="1" parent="1" source="Ez-ZwfZhHMJORxGf13h--43" target="Ez-ZwfZhHMJORxGf13h--44">
          <mxGeometry relative="1" as="geometry" />
        </mxCell>
        <mxCell id="Ez-ZwfZhHMJORxGf13h--48" value="" style="edgeStyle=orthogonalEdgeStyle;rounded=0;orthogonalLoop=1;jettySize=auto;html=1;" edge="1" parent="1" source="Ez-ZwfZhHMJORxGf13h--43" target="Ez-ZwfZhHMJORxGf13h--47">
          <mxGeometry relative="1" as="geometry" />
        </mxCell>
        <mxCell id="Ez-ZwfZhHMJORxGf13h--43" value="ELSE" style="rhombus;whiteSpace=wrap;html=1;" vertex="1" parent="1">
          <mxGeometry x="700" y="260" width="80" height="80" as="geometry" />
        </mxCell>
        <mxCell id="Ez-ZwfZhHMJORxGf13h--44" value="Set the target" style="whiteSpace=wrap;html=1;" vertex="1" parent="1">
          <mxGeometry x="810" y="270" width="120" height="60" as="geometry" />
        </mxCell>
        <mxCell id="Ez-ZwfZhHMJORxGf13h--50" value="yes" style="edgeStyle=orthogonalEdgeStyle;rounded=0;orthogonalLoop=1;jettySize=auto;html=1;" edge="1" parent="1" source="Ez-ZwfZhHMJORxGf13h--47" target="Ez-ZwfZhHMJORxGf13h--49">
          <mxGeometry relative="1" as="geometry" />
        </mxCell>
        <mxCell id="Ez-ZwfZhHMJORxGf13h--126" value="no" style="edgeStyle=orthogonalEdgeStyle;rounded=0;orthogonalLoop=1;jettySize=auto;html=1;" edge="1" parent="1" source="Ez-ZwfZhHMJORxGf13h--47" target="Ez-ZwfZhHMJORxGf13h--125">
          <mxGeometry relative="1" as="geometry">
            <Array as="points">
              <mxPoint x="960" y="460" />
              <mxPoint x="960" y="150" />
            </Array>
          </mxGeometry>
        </mxCell>
        <mxCell id="Ez-ZwfZhHMJORxGf13h--47" value="IF search target != locked sight rng target" style="rhombus;whiteSpace=wrap;html=1;" vertex="1" parent="1">
          <mxGeometry x="710" y="420" width="80" height="80" as="geometry" />
        </mxCell>
        <mxCell id="Ez-ZwfZhHMJORxGf13h--53" style="edgeStyle=orthogonalEdgeStyle;rounded=0;orthogonalLoop=1;jettySize=auto;html=1;entryX=0.5;entryY=0;entryDx=0;entryDy=0;" edge="1" parent="1" source="Ez-ZwfZhHMJORxGf13h--49" target="Ez-ZwfZhHMJORxGf13h--52">
          <mxGeometry relative="1" as="geometry">
            <Array as="points">
              <mxPoint x="750" y="640" />
              <mxPoint x="230" y="640" />
            </Array>
          </mxGeometry>
        </mxCell>
        <mxCell id="Ez-ZwfZhHMJORxGf13h--49" value="set target as locked sight range target" style="whiteSpace=wrap;html=1;" vertex="1" parent="1">
          <mxGeometry x="690" y="550" width="120" height="60" as="geometry" />
        </mxCell>
        <mxCell id="Ez-ZwfZhHMJORxGf13h--55" value="" style="edgeStyle=orthogonalEdgeStyle;rounded=0;orthogonalLoop=1;jettySize=auto;html=1;" edge="1" parent="1" source="Ez-ZwfZhHMJORxGf13h--52" target="Ez-ZwfZhHMJORxGf13h--54">
          <mxGeometry relative="1" as="geometry" />
        </mxCell>
        <mxCell id="Ez-ZwfZhHMJORxGf13h--52" value="construct&amp;nbsp;chr_stopAnim&amp;nbsp;&lt;br&gt;request object" style="rounded=0;whiteSpace=wrap;html=1;" vertex="1" parent="1">
          <mxGeometry x="170" y="670" width="120" height="60" as="geometry" />
        </mxCell>
        <mxCell id="Ez-ZwfZhHMJORxGf13h--57" value="" style="edgeStyle=orthogonalEdgeStyle;rounded=0;orthogonalLoop=1;jettySize=auto;html=1;" edge="1" parent="1" source="Ez-ZwfZhHMJORxGf13h--54" target="Ez-ZwfZhHMJORxGf13h--56">
          <mxGeometry relative="1" as="geometry" />
        </mxCell>
        <mxCell id="Ez-ZwfZhHMJORxGf13h--54" value="call setAnimation" style="rounded=1;whiteSpace=wrap;html=1;fillColor=#f8cecc;gradientColor=#ea6b66;strokeColor=#b85450;" vertex="1" parent="1">
          <mxGeometry x="170" y="770" width="120" height="60" as="geometry" />
        </mxCell>
        <mxCell id="Ez-ZwfZhHMJORxGf13h--60" value="" style="edgeStyle=orthogonalEdgeStyle;rounded=0;orthogonalLoop=1;jettySize=auto;html=1;" edge="1" parent="1" source="Ez-ZwfZhHMJORxGf13h--56" target="Ez-ZwfZhHMJORxGf13h--58">
          <mxGeometry relative="1" as="geometry" />
        </mxCell>
        <mxCell id="Ez-ZwfZhHMJORxGf13h--56" value="set agent max speed 0" style="rounded=1;whiteSpace=wrap;html=1;fillColor=#ffcc99;strokeColor=#36393d;" vertex="1" parent="1">
          <mxGeometry x="170" y="860" width="120" height="60" as="geometry" />
        </mxCell>
        <mxCell id="Ez-ZwfZhHMJORxGf13h--62" value="" style="edgeStyle=orthogonalEdgeStyle;rounded=0;orthogonalLoop=1;jettySize=auto;html=1;" edge="1" parent="1" source="Ez-ZwfZhHMJORxGf13h--58" target="Ez-ZwfZhHMJORxGf13h--61">
          <mxGeometry relative="1" as="geometry" />
        </mxCell>
        <mxCell id="Ez-ZwfZhHMJORxGf13h--58" value="TIMEOUT chr stop 0.5 sec" style="rhombus;whiteSpace=wrap;html=1;" vertex="1" parent="1">
          <mxGeometry x="190" y="950" width="80" height="80" as="geometry" />
        </mxCell>
        <mxCell id="Ez-ZwfZhHMJORxGf13h--66" style="edgeStyle=orthogonalEdgeStyle;rounded=0;orthogonalLoop=1;jettySize=auto;html=1;entryX=0.5;entryY=0;entryDx=0;entryDy=0;" edge="1" parent="1" source="Ez-ZwfZhHMJORxGf13h--61" target="Ez-ZwfZhHMJORxGf13h--64">
          <mxGeometry relative="1" as="geometry" />
        </mxCell>
        <mxCell id="Ez-ZwfZhHMJORxGf13h--61" value="get the direction of target and set the animation&amp;nbsp;" style="rounded=0;whiteSpace=wrap;html=1;" vertex="1" parent="1">
          <mxGeometry x="170" y="1060" width="120" height="60" as="geometry" />
        </mxCell>
        <mxCell id="Ez-ZwfZhHMJORxGf13h--69" value="" style="edgeStyle=orthogonalEdgeStyle;rounded=0;orthogonalLoop=1;jettySize=auto;html=1;" edge="1" parent="1" source="Ez-ZwfZhHMJORxGf13h--64" target="Ez-ZwfZhHMJORxGf13h--65">
          <mxGeometry relative="1" as="geometry" />
        </mxCell>
        <mxCell id="Ez-ZwfZhHMJORxGf13h--64" value="TIMEOUT chr stop 0.5 sec" style="rhombus;whiteSpace=wrap;html=1;" vertex="1" parent="1">
          <mxGeometry x="380" y="670" width="80" height="80" as="geometry" />
        </mxCell>
        <mxCell id="Ez-ZwfZhHMJORxGf13h--68" value="" style="edgeStyle=orthogonalEdgeStyle;rounded=0;orthogonalLoop=1;jettySize=auto;html=1;" edge="1" parent="1" source="Ez-ZwfZhHMJORxGf13h--65" target="Ez-ZwfZhHMJORxGf13h--67">
          <mxGeometry relative="1" as="geometry" />
        </mxCell>
        <mxCell id="Ez-ZwfZhHMJORxGf13h--65" value="set the moving animaiton" style="rounded=0;whiteSpace=wrap;html=1;" vertex="1" parent="1">
          <mxGeometry x="360" y="780" width="120" height="60" as="geometry" />
        </mxCell>
        <mxCell id="Ez-ZwfZhHMJORxGf13h--71" value="" style="edgeStyle=orthogonalEdgeStyle;rounded=0;orthogonalLoop=1;jettySize=auto;html=1;" edge="1" parent="1" source="Ez-ZwfZhHMJORxGf13h--67" target="Ez-ZwfZhHMJORxGf13h--70">
          <mxGeometry relative="1" as="geometry" />
        </mxCell>
        <mxCell id="Ez-ZwfZhHMJORxGf13h--67" value="set agent max speed&amp;nbsp;" style="rounded=1;whiteSpace=wrap;html=1;fillColor=#ffcc99;strokeColor=#36393d;" vertex="1" parent="1">
          <mxGeometry x="360" y="870" width="120" height="60" as="geometry" />
        </mxCell>
        <mxCell id="Ez-ZwfZhHMJORxGf13h--73" value="" style="edgeStyle=orthogonalEdgeStyle;rounded=0;orthogonalLoop=1;jettySize=auto;html=1;entryX=0.5;entryY=0;entryDx=0;entryDy=0;" edge="1" parent="1" source="Ez-ZwfZhHMJORxGf13h--70" target="Ez-ZwfZhHMJORxGf13h--72">
          <mxGeometry relative="1" as="geometry" />
        </mxCell>
        <mxCell id="Ez-ZwfZhHMJORxGf13h--70" value="IF card is group mode" style="rhombus;whiteSpace=wrap;html=1;" vertex="1" parent="1">
          <mxGeometry x="380" y="970" width="80" height="80" as="geometry" />
        </mxCell>
        <mxCell id="Ez-ZwfZhHMJORxGf13h--75" value="" style="edgeStyle=orthogonalEdgeStyle;rounded=0;orthogonalLoop=1;jettySize=auto;html=1;" edge="1" parent="1" source="Ez-ZwfZhHMJORxGf13h--72" target="Ez-ZwfZhHMJORxGf13h--74">
          <mxGeometry relative="1" as="geometry" />
        </mxCell>
        <mxCell id="Ez-ZwfZhHMJORxGf13h--72" value="FOR all card" style="rhombus;whiteSpace=wrap;html=1;" vertex="1" parent="1">
          <mxGeometry x="530" y="670" width="80" height="80" as="geometry" />
        </mxCell>
        <mxCell id="Ez-ZwfZhHMJORxGf13h--78" value="" style="edgeStyle=orthogonalEdgeStyle;rounded=0;orthogonalLoop=1;jettySize=auto;html=1;" edge="1" parent="1" source="Ez-ZwfZhHMJORxGf13h--74" target="Ez-ZwfZhHMJORxGf13h--76">
          <mxGeometry relative="1" as="geometry" />
        </mxCell>
        <mxCell id="Ez-ZwfZhHMJORxGf13h--74" value="set the target agent locked sight target to child" style="whiteSpace=wrap;html=1;" vertex="1" parent="1">
          <mxGeometry x="510" y="780" width="120" height="60" as="geometry" />
        </mxCell>
        <mxCell id="Ez-ZwfZhHMJORxGf13h--80" value="" style="edgeStyle=orthogonalEdgeStyle;rounded=0;orthogonalLoop=1;jettySize=auto;html=1;" edge="1" parent="1" source="Ez-ZwfZhHMJORxGf13h--76" target="Ez-ZwfZhHMJORxGf13h--77">
          <mxGeometry relative="1" as="geometry" />
        </mxCell>
        <mxCell id="Ez-ZwfZhHMJORxGf13h--76" value="construct&amp;nbsp;chr_stopAnim&amp;nbsp;&lt;br&gt;request object" style="rounded=0;whiteSpace=wrap;html=1;" vertex="1" parent="1">
          <mxGeometry x="520" y="870" width="120" height="60" as="geometry" />
        </mxCell>
        <mxCell id="Ez-ZwfZhHMJORxGf13h--85" style="edgeStyle=orthogonalEdgeStyle;rounded=0;orthogonalLoop=1;jettySize=auto;html=1;entryX=0.5;entryY=0;entryDx=0;entryDy=0;" edge="1" parent="1" source="Ez-ZwfZhHMJORxGf13h--77" target="Ez-ZwfZhHMJORxGf13h--83">
          <mxGeometry relative="1" as="geometry" />
        </mxCell>
        <mxCell id="Ez-ZwfZhHMJORxGf13h--77" value="call setAnimation" style="rounded=1;whiteSpace=wrap;html=1;fillColor=#f8cecc;gradientColor=#ea6b66;strokeColor=#b85450;" vertex="1" parent="1">
          <mxGeometry x="520" y="970" width="120" height="60" as="geometry" />
        </mxCell>
        <mxCell id="Ez-ZwfZhHMJORxGf13h--86" value="" style="edgeStyle=orthogonalEdgeStyle;rounded=0;orthogonalLoop=1;jettySize=auto;html=1;" edge="1" parent="1" source="Ez-ZwfZhHMJORxGf13h--83" target="Ez-ZwfZhHMJORxGf13h--84">
          <mxGeometry relative="1" as="geometry" />
        </mxCell>
        <mxCell id="Ez-ZwfZhHMJORxGf13h--83" value="TIMEOUT chr stop 0.5 sec" style="rhombus;whiteSpace=wrap;html=1;" vertex="1" parent="1">
          <mxGeometry x="710" y="670" width="80" height="80" as="geometry" />
        </mxCell>
        <mxCell id="Ez-ZwfZhHMJORxGf13h--91" value="" style="edgeStyle=orthogonalEdgeStyle;rounded=0;orthogonalLoop=1;jettySize=auto;html=1;" edge="1" parent="1" source="Ez-ZwfZhHMJORxGf13h--84" target="Ez-ZwfZhHMJORxGf13h--88">
          <mxGeometry relative="1" as="geometry" />
        </mxCell>
        <mxCell id="Ez-ZwfZhHMJORxGf13h--84" value="get the direction of target and set the animation&amp;nbsp;" style="rounded=0;whiteSpace=wrap;html=1;" vertex="1" parent="1">
          <mxGeometry x="690" y="780" width="120" height="60" as="geometry" />
        </mxCell>
        <mxCell id="Ez-ZwfZhHMJORxGf13h--92" value="" style="edgeStyle=orthogonalEdgeStyle;rounded=0;orthogonalLoop=1;jettySize=auto;html=1;" edge="1" parent="1" source="Ez-ZwfZhHMJORxGf13h--88" target="Ez-ZwfZhHMJORxGf13h--89">
          <mxGeometry relative="1" as="geometry" />
        </mxCell>
        <mxCell id="Ez-ZwfZhHMJORxGf13h--88" value="TIMEOUT chr stop 0.5 sec" style="rhombus;whiteSpace=wrap;html=1;" vertex="1" parent="1">
          <mxGeometry x="710" y="870" width="80" height="80" as="geometry" />
        </mxCell>
        <mxCell id="Ez-ZwfZhHMJORxGf13h--94" value="" style="edgeStyle=orthogonalEdgeStyle;rounded=0;orthogonalLoop=1;jettySize=auto;html=1;" edge="1" parent="1" source="Ez-ZwfZhHMJORxGf13h--89" target="Ez-ZwfZhHMJORxGf13h--90">
          <mxGeometry relative="1" as="geometry" />
        </mxCell>
        <mxCell id="Ez-ZwfZhHMJORxGf13h--89" value="set the moving animaiton" style="rounded=0;whiteSpace=wrap;html=1;" vertex="1" parent="1">
          <mxGeometry x="690" y="980" width="120" height="60" as="geometry" />
        </mxCell>
        <mxCell id="Ez-ZwfZhHMJORxGf13h--95" style="edgeStyle=orthogonalEdgeStyle;rounded=0;orthogonalLoop=1;jettySize=auto;html=1;entryX=0;entryY=0.5;entryDx=0;entryDy=0;" edge="1" parent="1" source="Ez-ZwfZhHMJORxGf13h--90" target="Ez-ZwfZhHMJORxGf13h--72">
          <mxGeometry relative="1" as="geometry">
            <Array as="points">
              <mxPoint x="500" y="1100" />
              <mxPoint x="500" y="710" />
            </Array>
          </mxGeometry>
        </mxCell>
        <mxCell id="Ez-ZwfZhHMJORxGf13h--96" value="Next char" style="edgeLabel;html=1;align=center;verticalAlign=middle;resizable=0;points=[];" vertex="1" connectable="0" parent="Ez-ZwfZhHMJORxGf13h--95">
          <mxGeometry x="-0.2518" y="3" relative="1" as="geometry">
            <mxPoint as="offset" />
          </mxGeometry>
        </mxCell>
        <mxCell id="Ez-ZwfZhHMJORxGf13h--98" style="edgeStyle=orthogonalEdgeStyle;rounded=0;orthogonalLoop=1;jettySize=auto;html=1;entryX=0.5;entryY=0;entryDx=0;entryDy=0;" edge="1" parent="1" source="Ez-ZwfZhHMJORxGf13h--90" target="Ez-ZwfZhHMJORxGf13h--97">
          <mxGeometry relative="1" as="geometry" />
        </mxCell>
        <mxCell id="Ez-ZwfZhHMJORxGf13h--90" value="set agent max speed&amp;nbsp;" style="rounded=1;whiteSpace=wrap;html=1;fillColor=#ffcc99;strokeColor=#36393d;" vertex="1" parent="1">
          <mxGeometry x="690" y="1070" width="120" height="60" as="geometry" />
        </mxCell>
        <mxCell id="Ez-ZwfZhHMJORxGf13h--100" value="" style="edgeStyle=orthogonalEdgeStyle;rounded=0;orthogonalLoop=1;jettySize=auto;html=1;" edge="1" parent="1" source="Ez-ZwfZhHMJORxGf13h--97" target="Ez-ZwfZhHMJORxGf13h--99">
          <mxGeometry relative="1" as="geometry" />
        </mxCell>
        <mxCell id="Ez-ZwfZhHMJORxGf13h--97" value="IF card has dash effect" style="rhombus;whiteSpace=wrap;html=1;" vertex="1" parent="1">
          <mxGeometry x="860" y="650" width="80" height="80" as="geometry" />
        </mxCell>
        <mxCell id="Ez-ZwfZhHMJORxGf13h--102" value="" style="edgeStyle=orthogonalEdgeStyle;rounded=0;orthogonalLoop=1;jettySize=auto;html=1;" edge="1" parent="1" source="Ez-ZwfZhHMJORxGf13h--99" target="Ez-ZwfZhHMJORxGf13h--101">
          <mxGeometry relative="1" as="geometry" />
        </mxCell>
        <mxCell id="Ez-ZwfZhHMJORxGf13h--99" value="set dash effect true" style="whiteSpace=wrap;html=1;" vertex="1" parent="1">
          <mxGeometry x="840" y="760" width="120" height="60" as="geometry" />
        </mxCell>
        <mxCell id="Ez-ZwfZhHMJORxGf13h--104" value="" style="edgeStyle=orthogonalEdgeStyle;rounded=0;orthogonalLoop=1;jettySize=auto;html=1;" edge="1" parent="1" source="Ez-ZwfZhHMJORxGf13h--101" target="Ez-ZwfZhHMJORxGf13h--103">
          <mxGeometry relative="1" as="geometry" />
        </mxCell>
        <mxCell id="Ez-ZwfZhHMJORxGf13h--101" value="IF dash true and not do dash" style="rhombus;whiteSpace=wrap;html=1;" vertex="1" parent="1">
          <mxGeometry x="860" y="850" width="80" height="80" as="geometry" />
        </mxCell>
        <mxCell id="Ez-ZwfZhHMJORxGf13h--106" value="" style="edgeStyle=orthogonalEdgeStyle;rounded=0;orthogonalLoop=1;jettySize=auto;html=1;" edge="1" parent="1" source="Ez-ZwfZhHMJORxGf13h--103" target="Ez-ZwfZhHMJORxGf13h--105">
          <mxGeometry relative="1" as="geometry" />
        </mxCell>
        <mxCell id="Ez-ZwfZhHMJORxGf13h--103" value="call setDashattack" style="rounded=1;whiteSpace=wrap;html=1;fillColor=#f8cecc;gradientColor=#ea6b66;strokeColor=#b85450;" vertex="1" parent="1">
          <mxGeometry x="840" y="950" width="120" height="60" as="geometry" />
        </mxCell>
        <mxCell id="Ez-ZwfZhHMJORxGf13h--108" value="" style="edgeStyle=orthogonalEdgeStyle;rounded=0;orthogonalLoop=1;jettySize=auto;html=1;" edge="1" parent="1" source="Ez-ZwfZhHMJORxGf13h--105" target="Ez-ZwfZhHMJORxGf13h--107">
          <mxGeometry relative="1" as="geometry" />
        </mxCell>
        <mxCell id="Ez-ZwfZhHMJORxGf13h--105" value="IF dash speed" style="rhombus;whiteSpace=wrap;html=1;" vertex="1" parent="1">
          <mxGeometry x="860" y="1050" width="80" height="80" as="geometry" />
        </mxCell>
        <mxCell id="Ez-ZwfZhHMJORxGf13h--110" style="edgeStyle=orthogonalEdgeStyle;rounded=0;orthogonalLoop=1;jettySize=auto;html=1;entryX=0.5;entryY=0;entryDx=0;entryDy=0;" edge="1" parent="1" source="Ez-ZwfZhHMJORxGf13h--107" target="Ez-ZwfZhHMJORxGf13h--109">
          <mxGeometry relative="1" as="geometry" />
        </mxCell>
        <mxCell id="Ez-ZwfZhHMJORxGf13h--107" value="call setDashattack" style="rounded=1;whiteSpace=wrap;html=1;fillColor=#f8cecc;gradientColor=#ea6b66;strokeColor=#b85450;" vertex="1" parent="1">
          <mxGeometry x="840" y="1160" width="120" height="60" as="geometry" />
        </mxCell>
        <mxCell id="Ez-ZwfZhHMJORxGf13h--112" value="" style="edgeStyle=orthogonalEdgeStyle;rounded=0;orthogonalLoop=1;jettySize=auto;html=1;" edge="1" parent="1" source="Ez-ZwfZhHMJORxGf13h--109" target="Ez-ZwfZhHMJORxGf13h--111">
          <mxGeometry relative="1" as="geometry" />
        </mxCell>
        <mxCell id="Ez-ZwfZhHMJORxGf13h--109" value="set the target&amp;nbsp;" style="rounded=0;whiteSpace=wrap;html=1;" vertex="1" parent="1">
          <mxGeometry x="1010" y="660" width="120" height="60" as="geometry" />
        </mxCell>
        <mxCell id="Ez-ZwfZhHMJORxGf13h--114" value="" style="edgeStyle=orthogonalEdgeStyle;rounded=0;orthogonalLoop=1;jettySize=auto;html=1;" edge="1" parent="1" source="Ez-ZwfZhHMJORxGf13h--111" target="Ez-ZwfZhHMJORxGf13h--113">
          <mxGeometry relative="1" as="geometry" />
        </mxCell>
        <mxCell id="Ez-ZwfZhHMJORxGf13h--111" value="call findPathRules" style="rounded=1;whiteSpace=wrap;html=1;fillColor=#f8cecc;gradientColor=#ea6b66;strokeColor=#b85450;" vertex="1" parent="1">
          <mxGeometry x="1010" y="760" width="120" height="60" as="geometry" />
        </mxCell>
        <mxCell id="Ez-ZwfZhHMJORxGf13h--116" value="yes" style="edgeStyle=orthogonalEdgeStyle;rounded=0;orthogonalLoop=1;jettySize=auto;html=1;" edge="1" parent="1" source="Ez-ZwfZhHMJORxGf13h--113" target="Ez-ZwfZhHMJORxGf13h--115">
          <mxGeometry relative="1" as="geometry">
            <Array as="points">
              <mxPoint x="1130" y="900" />
              <mxPoint x="1130" y="900" />
            </Array>
          </mxGeometry>
        </mxCell>
        <mxCell id="Ez-ZwfZhHMJORxGf13h--118" value="NO" style="edgeStyle=orthogonalEdgeStyle;rounded=0;orthogonalLoop=1;jettySize=auto;html=1;" edge="1" parent="1" source="Ez-ZwfZhHMJORxGf13h--113" target="Ez-ZwfZhHMJORxGf13h--117">
          <mxGeometry relative="1" as="geometry" />
        </mxCell>
        <mxCell id="Ez-ZwfZhHMJORxGf13h--113" value="IF target is card" style="rhombus;whiteSpace=wrap;html=1;" vertex="1" parent="1">
          <mxGeometry x="1030" y="860" width="80" height="80" as="geometry" />
        </mxCell>
        <mxCell id="Ez-ZwfZhHMJORxGf13h--115" value="set target agent type card" style="whiteSpace=wrap;html=1;" vertex="1" parent="1">
          <mxGeometry x="1155" y="870" width="120" height="60" as="geometry" />
        </mxCell>
        <mxCell id="Ez-ZwfZhHMJORxGf13h--120" value="yes" style="edgeStyle=orthogonalEdgeStyle;rounded=0;orthogonalLoop=1;jettySize=auto;html=1;" edge="1" parent="1" source="Ez-ZwfZhHMJORxGf13h--117" target="Ez-ZwfZhHMJORxGf13h--119">
          <mxGeometry relative="1" as="geometry" />
        </mxCell>
        <mxCell id="Ez-ZwfZhHMJORxGf13h--124" value="" style="edgeStyle=orthogonalEdgeStyle;rounded=0;orthogonalLoop=1;jettySize=auto;html=1;" edge="1" parent="1" source="Ez-ZwfZhHMJORxGf13h--117" target="Ez-ZwfZhHMJORxGf13h--122">
          <mxGeometry relative="1" as="geometry" />
        </mxCell>
        <mxCell id="Ez-ZwfZhHMJORxGf13h--117" value="ELSE IF target is np" style="rhombus;whiteSpace=wrap;html=1;" vertex="1" parent="1">
          <mxGeometry x="1030" y="990" width="80" height="80" as="geometry" />
        </mxCell>
        <mxCell id="Ez-ZwfZhHMJORxGf13h--119" value="set target agent type npc" style="whiteSpace=wrap;html=1;" vertex="1" parent="1">
          <mxGeometry x="1155" y="1000" width="120" height="60" as="geometry" />
        </mxCell>
        <mxCell id="Ez-ZwfZhHMJORxGf13h--121" value="yes" style="edgeStyle=orthogonalEdgeStyle;rounded=0;orthogonalLoop=1;jettySize=auto;html=1;" edge="1" parent="1" source="Ez-ZwfZhHMJORxGf13h--122" target="Ez-ZwfZhHMJORxGf13h--123">
          <mxGeometry relative="1" as="geometry" />
        </mxCell>
        <mxCell id="Ez-ZwfZhHMJORxGf13h--122" value="ELSE&amp;nbsp;" style="rhombus;whiteSpace=wrap;html=1;" vertex="1" parent="1">
          <mxGeometry x="1030" y="1110" width="80" height="80" as="geometry" />
        </mxCell>
        <mxCell id="Ez-ZwfZhHMJORxGf13h--123" value="set target agent type pop" style="whiteSpace=wrap;html=1;" vertex="1" parent="1">
          <mxGeometry x="1155" y="1120" width="120" height="60" as="geometry" />
        </mxCell>
        <mxCell id="Ez-ZwfZhHMJORxGf13h--128" value="no" style="edgeStyle=orthogonalEdgeStyle;rounded=0;orthogonalLoop=1;jettySize=auto;html=1;" edge="1" parent="1" source="Ez-ZwfZhHMJORxGf13h--125" target="Ez-ZwfZhHMJORxGf13h--127">
          <mxGeometry relative="1" as="geometry" />
        </mxCell>
        <mxCell id="Ez-ZwfZhHMJORxGf13h--130" value="no" style="edgeStyle=orthogonalEdgeStyle;rounded=0;orthogonalLoop=1;jettySize=auto;html=1;" edge="1" parent="1" source="Ez-ZwfZhHMJORxGf13h--125" target="Ez-ZwfZhHMJORxGf13h--129">
          <mxGeometry relative="1" as="geometry" />
        </mxCell>
        <mxCell id="Ez-ZwfZhHMJORxGf13h--125" value="ELSE IF locked sight rng = current target" style="rhombus;whiteSpace=wrap;html=1;" vertex="1" parent="1">
          <mxGeometry x="980" y="110" width="80" height="80" as="geometry" />
        </mxCell>
        <mxCell id="Ez-ZwfZhHMJORxGf13h--127" value="Set the target" style="whiteSpace=wrap;html=1;" vertex="1" parent="1">
          <mxGeometry x="970" y="240" width="120" height="60" as="geometry" />
        </mxCell>
        <mxCell id="Ez-ZwfZhHMJORxGf13h--133" value="" style="edgeStyle=orthogonalEdgeStyle;rounded=0;orthogonalLoop=1;jettySize=auto;html=1;fontSize=8;" edge="1" parent="1" source="Ez-ZwfZhHMJORxGf13h--129" target="Ez-ZwfZhHMJORxGf13h--132">
          <mxGeometry relative="1" as="geometry" />
        </mxCell>
        <mxCell id="Ez-ZwfZhHMJORxGf13h--129" value="&lt;font style=&quot;font-size: 8px&quot;&gt;ELSE IF current target is opptruck oppstock tower&lt;/font&gt;" style="rhombus;whiteSpace=wrap;html=1;" vertex="1" parent="1">
          <mxGeometry x="1140" y="110" width="80" height="80" as="geometry" />
        </mxCell>
        <mxCell id="Ez-ZwfZhHMJORxGf13h--135" value="" style="edgeStyle=orthogonalEdgeStyle;rounded=0;orthogonalLoop=1;jettySize=auto;html=1;fontSize=8;" edge="1" parent="1" source="Ez-ZwfZhHMJORxGf13h--132" target="Ez-ZwfZhHMJORxGf13h--134">
          <mxGeometry relative="1" as="geometry" />
        </mxCell>
        <mxCell id="Ez-ZwfZhHMJORxGf13h--132" value="reset the locked sight range target&amp;nbsp;" style="whiteSpace=wrap;html=1;" vertex="1" parent="1">
          <mxGeometry x="1120" y="240" width="120" height="60" as="geometry" />
        </mxCell>
        <mxCell id="Ez-ZwfZhHMJORxGf13h--137" value="" style="edgeStyle=orthogonalEdgeStyle;rounded=0;orthogonalLoop=1;jettySize=auto;html=1;fontSize=8;" edge="1" parent="1" source="Ez-ZwfZhHMJORxGf13h--134" target="Ez-ZwfZhHMJORxGf13h--136">
          <mxGeometry relative="1" as="geometry" />
        </mxCell>
        <mxCell id="Ez-ZwfZhHMJORxGf13h--134" value="call&amp;nbsp;setCrdActnNeutrl" style="rounded=1;whiteSpace=wrap;html=1;fillColor=#f8cecc;gradientColor=#ea6b66;strokeColor=#b85450;" vertex="1" parent="1">
          <mxGeometry x="1120" y="340" width="120" height="60" as="geometry" />
        </mxCell>
        <mxCell id="Ez-ZwfZhHMJORxGf13h--147" style="edgeStyle=orthogonalEdgeStyle;rounded=0;orthogonalLoop=1;jettySize=auto;html=1;entryX=0.5;entryY=0;entryDx=0;entryDy=0;fontSize=8;" edge="1" parent="1" source="Ez-ZwfZhHMJORxGf13h--136" target="Ez-ZwfZhHMJORxGf13h--144">
          <mxGeometry relative="1" as="geometry" />
        </mxCell>
        <mxCell id="Ez-ZwfZhHMJORxGf13h--136" value="IF search result is empty&amp;nbsp;" style="rhombus;whiteSpace=wrap;html=1;fontSize=8;" vertex="1" parent="1">
          <mxGeometry x="1140" y="440" width="80" height="80" as="geometry" />
        </mxCell>
        <mxCell id="Ez-ZwfZhHMJORxGf13h--148" value="" style="edgeStyle=orthogonalEdgeStyle;rounded=0;orthogonalLoop=1;jettySize=auto;html=1;fontSize=8;" edge="1" parent="1" source="Ez-ZwfZhHMJORxGf13h--144" target="Ez-ZwfZhHMJORxGf13h--145">
          <mxGeometry relative="1" as="geometry" />
        </mxCell>
        <mxCell id="Ez-ZwfZhHMJORxGf13h--144" value="&lt;font style=&quot;font-size: 8px&quot;&gt;ELSE IF current target is opptruck oppstock tower&lt;/font&gt;" style="rhombus;whiteSpace=wrap;html=1;" vertex="1" parent="1">
          <mxGeometry x="1310" y="120" width="80" height="80" as="geometry" />
        </mxCell>
        <mxCell id="Ez-ZwfZhHMJORxGf13h--149" value="" style="edgeStyle=orthogonalEdgeStyle;rounded=0;orthogonalLoop=1;jettySize=auto;html=1;fontSize=8;" edge="1" parent="1" source="Ez-ZwfZhHMJORxGf13h--145" target="Ez-ZwfZhHMJORxGf13h--146">
          <mxGeometry relative="1" as="geometry" />
        </mxCell>
        <mxCell id="Ez-ZwfZhHMJORxGf13h--145" value="reset the locked sight range target&amp;nbsp;" style="whiteSpace=wrap;html=1;" vertex="1" parent="1">
          <mxGeometry x="1290" y="250" width="120" height="60" as="geometry" />
        </mxCell>
        <mxCell id="Ez-ZwfZhHMJORxGf13h--146" value="call&amp;nbsp;setCrdActnNeutrl" style="rounded=1;whiteSpace=wrap;html=1;fillColor=#f8cecc;gradientColor=#ea6b66;strokeColor=#b85450;" vertex="1" parent="1">
          <mxGeometry x="1290" y="350" width="120" height="60" as="geometry" />
        </mxCell>
        <mxCell id="Ez-ZwfZhHMJORxGf13h--150" value="ELSE IF target is&amp;nbsp;" style="rhombus;whiteSpace=wrap;html=1;" vertex="1" parent="1">
          <mxGeometry x="85" y="1170" width="80" height="80" as="geometry" />
        </mxCell>
      </root>
    </mxGraphModel>
  </diagram>
</mxfile>
